<svg width="115" height="22" viewBox="0 0 115 22" fill="none" xmlns="http://www.w3.org/2000/svg">
<path d="M4.21973 22H0.015625V0.994141H4.21973V9.40234H12.6133V0.994141H16.8174V22H12.6133V13.6064H4.21973V22ZM24.9326 22H20.7285V0.994141H24.9326V22ZM40.9727 9.40234V13.3867H28.668V9.40234H40.9727ZM51.6953 22H47.5059V5.19824H41.1924V0.994141H57.9941V5.19824H51.6953V22ZM71.9395 13.6064V9.40234C71.9395 8.82617 71.8271 8.28418 71.6025 7.77637C71.3877 7.25879 71.0898 6.80957 70.709 6.42871C70.3281 6.04785 69.8789 5.75 69.3613 5.53516C68.8535 5.31055 68.3115 5.19824 67.7354 5.19824C67.1592 5.19824 66.6123 5.31055 66.0947 5.53516C65.5869 5.75 65.1426 6.04785 64.7617 6.42871C64.3809 6.80957 64.0781 7.25879 63.8535 7.77637C63.6387 8.28418 63.5312 8.82617 63.5312 9.40234V13.6064H71.9395ZM76.1436 22H71.9395V17.7959H63.5312V22H59.3418V9.40234C59.3418 8.24023 59.5615 7.15137 60.001 6.13574C60.4404 5.11035 61.0361 4.2168 61.7881 3.45508C62.5498 2.69336 63.4385 2.09277 64.4541 1.65332C65.4795 1.21387 66.5732 0.994141 67.7354 0.994141C68.8975 0.994141 69.9863 1.21387 71.002 1.65332C72.0273 2.09277 72.9209 2.69336 73.6826 3.45508C74.4443 4.2168 75.0449 5.11035 75.4844 6.13574C75.9238 7.15137 76.1436 8.24023 76.1436 9.40234V22ZM78.5605 7.29297C78.5605 6.42383 78.7266 5.6084 79.0586 4.84668C79.3906 4.08496 79.8398 3.4209 80.4062 2.85449C80.9824 2.27832 81.6514 1.82422 82.4131 1.49219C83.1748 1.16016 83.9902 0.994141 84.8594 0.994141H94.498V5.19824H84.8594C84.5664 5.19824 84.293 5.25195 84.0391 5.35938C83.7852 5.4668 83.5605 5.61816 83.3652 5.81348C83.1797 5.99902 83.0332 6.21875 82.9258 6.47266C82.8184 6.72656 82.7646 7 82.7646 7.29297C82.7646 7.58594 82.8184 7.86426 82.9258 8.12793C83.0332 8.38184 83.1797 8.60645 83.3652 8.80176C83.5605 8.9873 83.7852 9.13379 84.0391 9.24121C84.293 9.34863 84.5664 9.40234 84.8594 9.40234H89.0635C89.9326 9.40234 90.748 9.56836 91.5098 9.90039C92.2812 10.2227 92.9502 10.6719 93.5166 11.248C94.0928 11.8145 94.542 12.4834 94.8643 13.2549C95.1963 14.0166 95.3623 14.832 95.3623 15.7012C95.3623 16.5703 95.1963 17.3857 94.8643 18.1475C94.542 18.9092 94.0928 19.5781 93.5166 20.1543C92.9502 20.7207 92.2812 21.1699 91.5098 21.502C90.748 21.834 89.9326 22 89.0635 22H79.7324V17.7959H89.0635C89.3564 17.7959 89.6299 17.7422 89.8838 17.6348C90.1377 17.5273 90.3574 17.3809 90.543 17.1953C90.7383 17 90.8896 16.7754 90.9971 16.5215C91.1045 16.2676 91.1582 15.9941 91.1582 15.7012C91.1582 15.4082 91.1045 15.1348 90.9971 14.8809C90.8896 14.627 90.7383 14.4072 90.543 14.2217C90.3574 14.0264 90.1377 13.875 89.8838 13.7676C89.6299 13.6602 89.3564 13.6064 89.0635 13.6064H84.8594C83.9902 13.6064 83.1748 13.4404 82.4131 13.1084C81.6514 12.7764 80.9824 12.3271 80.4062 11.7607C79.8398 11.1846 79.3906 10.5156 79.0586 9.75391C78.7266 8.98242 78.5605 8.16211 78.5605 7.29297ZM102.335 22H98.1309V0.994141H102.335V11.4971L110.157 0.994141H114.933L108.297 9.85645L114.933 22H110.157L105.543 13.5039L102.335 17.7959V22Z" fill="#006EE9"/>
</svg>
