<svg width="169" height="208" viewBox="0 0 169 208" fill="none" xmlns="http://www.w3.org/2000/svg">
<g filter="url(#filter0_d_110_450)">
<g clip-path="url(#clip0_110_450)">
<path d="M59 23C59 30.732 52.732 37 45 37C37.268 37 31 30.732 31 23C31 15.268 37.268 9 45 9C52.732 9 59 15.268 59 23ZM33.8033 23C33.8033 29.1838 38.8162 34.1967 45 34.1967C51.1838 34.1967 56.1967 29.1838 56.1967 23C56.1967 16.8162 51.1838 11.8033 45 11.8033C38.8162 11.8033 33.8033 16.8162 33.8033 23Z" fill="#68A0F4" fill-opacity="0.22"/>
<path d="M84 87C84 94.732 77.732 101 70 101C62.268 101 56 94.732 56 87C56 79.268 62.268 73 70 73C77.732 73 84 79.268 84 87ZM58.8033 87C58.8033 93.1838 63.8162 98.1967 70 98.1967C76.1838 98.1967 81.1967 93.1838 81.1967 87C81.1967 80.8162 76.1838 75.8033 70 75.8033C63.8162 75.8033 58.8033 80.8162 58.8033 87Z" fill="#68A0F4" fill-opacity="0.22"/>
<path d="M89 205.5C89 239.466 61.4655 267 27.5 267C-6.46551 267 -34 239.466 -34 205.5C-34 171.534 -6.46551 144 27.5 144C61.4655 144 89 171.534 89 205.5ZM-10.706 205.5C-10.706 226.601 6.39938 243.706 27.5 243.706C48.6006 243.706 65.706 226.601 65.706 205.5C65.706 184.399 48.6006 167.294 27.5 167.294C6.39938 167.294 -10.706 184.399 -10.706 205.5Z" fill="#68A0F4" fill-opacity="0.22"/>
<path d="M227 104.5C227 138.466 199.466 166 165.5 166C131.534 166 104 138.466 104 104.5C104 70.5345 131.534 43 165.5 43C199.466 43 227 70.5345 227 104.5ZM122.112 104.5C122.112 128.463 141.537 147.888 165.5 147.888C189.463 147.888 208.888 128.463 208.888 104.5C208.888 80.5375 189.463 61.1121 165.5 61.1121C141.537 61.1121 122.112 80.5375 122.112 104.5Z" fill="#68A0F4" fill-opacity="0.22"/>
</g>
</g>
<defs>
<filter id="filter0_d_110_450" x="0" y="-4" width="169" height="228" filterUnits="userSpaceOnUse" color-interpolation-filters="sRGB">
<feFlood flood-opacity="0" result="BackgroundImageFix"/>
<feColorMatrix in="SourceAlpha" type="matrix" values="0 0 0 0 0 0 0 0 0 0 0 0 0 0 0 0 0 0 127 0" result="hardAlpha"/>
<feOffset dy="16"/>
<feGaussianBlur stdDeviation="10"/>
<feComposite in2="hardAlpha" operator="out"/>
<feColorMatrix type="matrix" values="0 0 0 0 0.109804 0 0 0 0 0.0627451 0 0 0 0 0.243137 0 0 0 0.1 0"/>
<feBlend mode="normal" in2="BackgroundImageFix" result="effect1_dropShadow_110_450"/>
<feBlend mode="normal" in="SourceGraphic" in2="effect1_dropShadow_110_450" result="shape"/>
</filter>
<clipPath id="clip0_110_450">
<rect x="20" width="129" height="188" rx="20" fill="white"/>
</clipPath>
</defs>
</svg>
