<svg width="169" height="228" viewBox="0 0 169 228" fill="none" xmlns="http://www.w3.org/2000/svg">
<g clip-path="url(#clip0_1_49)">
<g filter="url(#filter0_d_1_49)">
<mask id="mask0_1_49" style="mask-type:luminance" maskUnits="userSpaceOnUse" x="0" y="0" width="169" height="228">
<path d="M142.798 0H26.2016C11.7308 0 0 10.8595 0 24.2553V203.745C0 217.141 11.7308 228 26.2016 228H142.798C157.269 228 169 217.141 169 203.745V24.2553C169 10.8595 157.269 0 142.798 0Z" fill="white"/>
</mask>
<g mask="url(#mask0_1_49)">
<path d="M51.093 27.8936C51.093 37.2707 42.8815 44.8723 32.7519 44.8723C22.6224 44.8723 14.4109 37.2707 14.4109 27.8936C14.4109 18.5165 22.6224 10.9149 32.7519 10.9149C42.8815 10.9149 51.093 18.5165 51.093 27.8936ZM18.0834 27.8936C18.0834 35.3931 24.6507 41.4726 32.7519 41.4726C40.8532 41.4726 47.4205 35.3931 47.4205 27.8936C47.4205 20.3941 40.8532 14.3146 32.7519 14.3146C24.6507 14.3146 18.0834 20.3941 18.0834 27.8936Z" fill="#68A0F4" fill-opacity="0.22"/>
<path d="M83.845 105.511C83.845 114.888 75.6334 122.489 65.5039 122.489C55.3744 122.489 47.1628 114.888 47.1628 105.511C47.1628 96.1335 55.3744 88.5319 65.5039 88.5319C75.6334 88.5319 83.845 96.1335 83.845 105.511ZM50.8353 105.511C50.8353 113.01 57.4026 119.09 65.5039 119.09C73.6051 119.09 80.1724 113.01 80.1724 105.511C80.1724 98.0111 73.6051 91.9317 65.5039 91.9317C57.4026 91.9317 50.8353 98.0111 50.8353 105.511Z" fill="#68A0F4" fill-opacity="0.22"/>
<path d="M90.3953 249.223C90.3953 290.416 54.323 323.809 9.82558 323.809C-34.6719 323.809 -70.7442 290.416 -70.7442 249.223C-70.7442 208.031 -34.6719 174.638 9.82558 174.638C54.323 174.638 90.3953 208.031 90.3953 249.223ZM-40.2272 249.223C-40.2272 274.814 -17.8179 295.558 9.82558 295.558C37.469 295.558 59.8784 274.814 59.8784 249.223C59.8784 223.633 37.469 202.888 9.82558 202.888C-17.8179 202.888 -40.2272 223.633 -40.2272 249.223Z" fill="#68A0F4" fill-opacity="0.22"/>
<path d="M271.186 126.734C271.186 167.927 235.114 201.319 190.616 201.319C146.118 201.319 110.047 167.927 110.047 126.734C110.047 85.5418 146.118 52.1489 190.616 52.1489C235.114 52.1489 271.186 85.5418 271.186 126.734ZM133.775 126.734C133.775 155.796 159.223 179.354 190.616 179.354C222.01 179.354 247.458 155.796 247.458 126.734C247.458 97.6731 222.01 74.1147 190.616 74.1147C159.223 74.1147 133.775 97.6731 133.775 126.734Z" fill="#68A0F4" fill-opacity="0.22"/>
</g>
</g>
</g>
<defs>
<filter id="filter0_d_1_49" x="-20" y="6.91489" width="209" height="257.085" filterUnits="userSpaceOnUse" color-interpolation-filters="sRGB">
<feFlood flood-opacity="0" result="BackgroundImageFix"/>
<feColorMatrix in="SourceAlpha" type="matrix" values="0 0 0 0 0 0 0 0 0 0 0 0 0 0 0 0 0 0 127 0" result="hardAlpha"/>
<feOffset dy="16"/>
<feGaussianBlur stdDeviation="10"/>
<feComposite in2="hardAlpha" operator="out"/>
<feColorMatrix type="matrix" values="0 0 0 0 0.109804 0 0 0 0 0.0627451 0 0 0 0 0.243137 0 0 0 0.1 0"/>
<feBlend mode="normal" in2="BackgroundImageFix" result="effect1_dropShadow_1_49"/>
<feBlend mode="normal" in="SourceGraphic" in2="effect1_dropShadow_1_49" result="shape"/>
</filter>
<clipPath id="clip0_1_49">
<rect width="169" height="228" fill="white"/>
</clipPath>
</defs>
</svg>
