<svg width="14" height="15" viewBox="0 0 14 15" fill="none" xmlns="http://www.w3.org/2000/svg">
<path d="M7.00573 1.66663C8.41675 1.66663 9.56036 2.83329 9.57743 4.27413H9.69691C11.2672 4.27413 12.5417 5.58663 12.5417 7.19663V10.4166C12.5417 12.0266 11.2672 13.3333 9.69691 13.3333H4.30317C2.73284 13.3333 1.45837 12.0266 1.45837 10.4166V7.19663C1.45837 5.58663 2.73284 4.27413 4.30317 4.27413H4.42265C4.43403 3.57413 4.70144 2.92079 5.18506 2.43079C5.67436 1.93496 6.30022 1.68413 7.00573 1.66663ZM9.16209 4.96829C8.92881 4.96829 8.73537 5.16663 8.73537 5.40579V6.08246C8.73537 6.32163 8.92881 6.51996 9.16209 6.51996C9.40105 6.51996 9.58881 6.32163 9.58881 6.08246V5.40579C9.58881 5.16663 9.40105 4.96829 9.16209 4.96829ZM4.78679 4.96829C4.55351 4.96829 4.36007 5.16663 4.36007 5.40579V6.08246C4.36007 6.32163 4.55351 6.51996 4.78679 6.51996C5.02575 6.51996 5.21351 6.32163 5.21351 6.08246V5.40579C5.21351 5.16663 5.02575 4.96829 4.78679 4.96829ZM7.00573 2.54163C6.56763 2.54163 6.11246 2.72246 5.78247 3.05496C5.46385 3.38163 5.28747 3.81329 5.27609 4.27413H8.72399C8.70692 3.31746 7.94451 2.54163 7.00573 2.54163Z" fill="#006EE9"/>
</svg>
