<svg width="33" height="32" viewBox="0 0 33 32" fill="none" xmlns="http://www.w3.org/2000/svg">
<path d="M21.3662 2.66669C21.9323 2.66536 22.3799 3.10514 22.3812 3.69151L22.3825 4.69101C26.0554 4.97887 28.4816 7.48162 28.4855 11.3197L28.5 22.5541C28.5053 26.7386 25.8763 29.3133 21.6624 29.32L11.3692 29.3334C7.1816 29.3387 4.51976 26.7027 4.5145 22.5061L4.50001 11.4037C4.49475 7.54025 6.83538 5.04417 10.5082 4.707L10.5069 3.70751C10.5056 3.12113 10.94 2.68002 11.5193 2.68002C12.0985 2.67869 12.5329 3.11847 12.5342 3.70484L12.5356 4.63771L20.3552 4.62704L20.3539 3.69418C20.3526 3.10781 20.787 2.66803 21.3662 2.66669ZM21.9033 21.5892H21.8902C21.2846 21.6039 20.7988 22.1116 20.812 22.7246C20.8133 23.3377 21.3017 23.8428 21.9073 23.8561C22.5247 23.8547 23.0249 23.347 23.0236 22.7206C23.0236 22.0943 22.522 21.5892 21.9033 21.5892ZM11.0559 21.5905C10.4503 21.6172 9.9764 22.1249 9.97771 22.738C10.0054 23.351 10.5056 23.8308 11.1112 23.8028C11.7049 23.7761 12.1775 23.2684 12.1498 22.6553C12.1367 22.0556 11.6483 21.5892 11.0559 21.5905ZM16.4796 21.5839C15.874 21.6119 15.4014 22.1183 15.4014 22.7313C15.4291 23.3443 15.9293 23.8228 16.5349 23.7961C17.1273 23.7681 17.6012 23.2617 17.5736 22.6474C17.5604 22.049 17.072 21.5826 16.4796 21.5839ZM11.0493 16.7929C10.4437 16.8196 9.97113 17.3274 9.97244 17.9404C9.99878 18.5534 10.5003 19.0332 11.1059 19.0052C11.6983 18.9785 12.1709 18.4708 12.1433 17.8578C12.1301 17.2581 11.643 16.7916 11.0493 16.7929ZM16.4743 16.7463C15.8688 16.773 15.3949 17.2807 15.3962 17.8937C15.4225 18.5068 15.9241 18.9852 16.5296 18.9585C17.122 18.9305 17.5946 18.4241 17.5683 17.8111C17.5538 17.2114 17.0667 16.745 16.4743 16.7463ZM21.8981 16.753C21.2925 16.7663 20.8186 17.2594 20.8199 17.8724V17.8871C20.8331 18.5001 21.3333 18.9652 21.9402 18.9519C22.5326 18.9372 23.0052 18.4295 22.992 17.8164C22.9644 17.2301 22.4891 16.7516 21.8981 16.753ZM20.3578 6.67935L12.5382 6.69001L12.5395 7.76814C12.5395 8.34252 12.1064 8.79562 11.5272 8.79562C10.9479 8.79696 10.5122 8.34518 10.5122 7.7708L10.5109 6.74465C7.94382 7.00186 6.52338 8.51043 6.52732 11.401L6.52865 11.8154L26.4595 11.7888V11.3224C26.4029 8.45713 24.9654 6.95388 22.3851 6.72999L22.3865 7.75614C22.3865 8.32919 21.9402 8.78363 21.3741 8.78363C20.7949 8.78496 20.3591 8.33186 20.3591 7.75881L20.3578 6.67935Z" fill="#ABCEF5"/>
</svg>
