<svg width="24" height="24" viewBox="0 0 24 24" fill="none" xmlns="http://www.w3.org/2000/svg">
<g id="help-buoy-sharp">
<path id="Vector" d="M12 1.5C6.20109 1.5 1.5 6.20109 1.5 12C1.5 17.7989 6.20109 22.5 12 22.5C17.7989 22.5 22.5 17.7989 22.5 12C22.5 6.20109 17.7989 1.5 12 1.5ZM9 12C9 11.4067 9.17595 10.8266 9.50559 10.3333C9.83524 9.83994 10.3038 9.45542 10.8519 9.22836C11.4001 9.0013 12.0033 8.94189 12.5853 9.05764C13.1672 9.1734 13.7018 9.45912 14.1213 9.87868C14.5409 10.2982 14.8266 10.8328 14.9424 11.4147C15.0581 11.9967 14.9987 12.5999 14.7716 13.1481C14.5446 13.6962 14.1601 14.1648 13.6667 14.4944C13.1734 14.8241 12.5933 15 12 15C11.2044 15 10.4413 14.6839 9.87868 14.1213C9.31607 13.5587 9 12.7956 9 12ZM20.1206 9.08016L16.0739 9.32812C15.7071 8.77147 15.2309 8.29525 14.6742 7.92844L14.9198 3.88172C16.1156 4.31446 17.2015 5.00488 18.1006 5.90405C18.9998 6.80322 19.6902 7.88913 20.123 9.08484L20.1206 9.08016ZM5.90109 5.90109C6.7983 5.00047 7.88405 4.31 9.08016 3.87937L9.32812 7.92609C8.77039 8.29335 8.29335 8.77039 7.92609 9.32812L3.87937 9.0825C4.30969 7.88555 5.00018 6.79898 5.90109 5.90109ZM3.87937 14.9198L7.92609 14.6742C8.2936 15.2311 8.77063 15.7073 9.32812 16.0739L9.0825 20.1206C7.88702 19.6881 6.80126 18.9981 5.90211 18.0993C5.00296 17.2006 4.31241 16.1151 3.87937 14.9198ZM18.0989 18.0989C17.2017 18.9995 16.116 19.69 14.9198 20.1206L14.6742 16.0739C15.2309 15.7071 15.7071 15.2309 16.0739 14.6742L20.1206 14.9198C19.69 16.116 18.9995 17.2017 18.0989 18.0989Z" fill="#006EE9"/>
</g>
</svg>
