<svg width="24" height="24" viewBox="0 0 24 24" fill="none" xmlns="http://www.w3.org/2000/svg">
<path d="M11.75 2C6.36547 2 2 6.36547 2 11.75C2 17.1345 6.36547 21.5 11.75 21.5C17.1345 21.5 21.5 17.1345 21.5 11.75C21.5 6.36547 17.1345 2 11.75 2ZM11.75 17C10.469 16.9995 9.23219 16.5313 8.27184 15.6835C7.31149 14.8357 6.69362 13.6665 6.53422 12.3955L6.11891 12.8108L5.05813 11.75L7.21438 9.59375L9.44328 11.7256L8.40641 12.8094L8.06891 12.4869C8.20798 13.1706 8.53446 13.8022 9.01185 14.3111C9.48925 14.8199 10.0987 15.186 10.7722 15.3684C11.4457 15.5508 12.1567 15.5423 12.8256 15.3438C13.4945 15.1454 14.0951 14.7648 14.5602 14.2447L15.6744 15.2483C15.1793 15.7987 14.5742 16.239 13.8981 16.5407C13.2221 16.8425 12.4903 16.999 11.75 17ZM16.287 13.9062L14.0581 11.7734L15.095 10.6897L15.4166 10.9967C15.2754 10.3157 14.9482 9.68723 14.4711 9.18114C13.9941 8.67504 13.3861 8.31119 12.7146 8.13004C12.0432 7.94889 11.3346 7.95754 10.6678 8.15505C10.001 8.35255 9.402 8.73115 8.9375 9.24875L7.82094 8.24703C8.49513 7.49594 9.37123 6.95475 10.3446 6.68805C11.3181 6.42136 12.3477 6.44043 13.3105 6.74301C14.2734 7.04558 15.1289 7.61886 15.7748 8.39441C16.4207 9.16995 16.8297 10.115 16.9531 11.1167L17.3802 10.6892L18.4419 11.75L16.287 13.9062Z" fill="#006EE9"/>
</svg>
